<svg width="18" height="18" viewBox="0 0 18 18" fill="none" xmlns="http://www.w3.org/2000/svg">
  <path d="M4.125 6.75H1.5V16.5H4.125V6.75Z" fill="currentColor"/>
  <path d="M2.8125 5.4375C3.63943 5.4375 4.3125 4.76443 4.3125 3.9375C4.3125 3.11057 3.63943 2.4375 2.8125 2.4375C1.98557 2.4375 1.3125 3.11057 1.3125 3.9375C1.3125 4.76443 1.98557 5.4375 2.8125 5.4375Z" fill="currentColor"/>
  <path d="M16.5 16.5H13.875V11.2275C13.875 9.97275 13.8525 8.355 12.12 8.355C10.365 8.355 10.0875 9.72 10.0875 11.1375V16.5H7.4625V6.75H9.9825V8.085H10.02C10.3725 7.4175 11.235 6.6525 12.5175 6.6525C15.18 6.6525 16.5 8.4075 16.5 11.037V16.5Z" fill="currentColor"/>
</svg>
